<?xml version="1.0" encoding="UTF-8"?>
<svg id="Layer_1" data-name="Layer 1" xmlns="http://www.w3.org/2000/svg" viewBox="0 0 2736.46 843.47">
  <defs>
    <style>
      .cls-1 {
        font-family: CenturyGothic, 'Century Gothic';
        font-size: 33px;
      }

      .cls-2 {
        fill: none;
        stroke: #000;
        stroke-miterlimit: 10;
        stroke-width: .25px;
      }
    </style>
  </defs>
  <path d="M1763.68,442.78l45.71-82.79,156.27-.37c-1.56-58.06,20.14-128.93,58.17-173.5,46.34-54.3,115.4-27.63,161.54,11.98,5.82,4.99,22.82,20.21,22.58,26.93l-30.86,117.94c-36.47-40.56-83.3-85.47-143.16-75.47-11.27,1.88-26.48,12.6-32.28,22.36-14.43,24.25,15.49,53.68,31.72,69.75h437.78l-46.1,83.16h-309.95c13.29,11.36,32.13,21.87,48.28,28.94,8.46,3.7,40.8,16.2,47.95,16.2h188.69l-46.1,83.16h-661.54l46.33-83.16h291.08l-33.27-45.15h-232.86Z"/>
  <g id="RHhDp6">
    <path d="M1225.45,393.48c-.63-49.2,11.44-95.41,35.76-137.75,36.04-62.75,75.59-82.5,144.12-47.15,10.67,5.5,53.6,35.43,57.81,44.54,5.03,10.87-27.48,103.87-29.11,122.3-34.69-37.51-99.37-98.66-154.85-69.62-45.05,23.58-12.02,62.54,11.46,87.68h406.25l-39.14,70.23-289.2-2c-1.11,4.66.87,3.3,2.53,4.6,12.44,9.72,80.97,31.54,94.75,31.54l172.05,1.99-39.49,71.25h-622.81l39.24-71.24h272.14l-37.11-36.13h-214.96l39.23-70.23h151.33Z"/>
  </g>
  <line class="cls-2" x1="1637.56" y1="670.31" x2="1837.59" y2="309.45"/>
  <line class="cls-2" x1="2305.18" y1="659.04" x2="2505.21" y2="298.17"/>
  <line class="cls-2" x1="1542.66" y1="671.64" x2="1742.69" y2="310.77"/>
  <g id="RHhDp6-2" data-name="RHhDp6">
    <path d="M485.9,430.37c-.63-49.2,11.44-95.41,35.76-137.75,36.04-62.75,75.59-82.5,144.12-47.15,10.67,5.5,53.6,35.43,57.81,44.54,5.03,10.87-27.48,103.87-29.11,122.3-34.69-37.51-99.37-98.66-154.85-69.62-45.05,23.58-12.02,62.54,11.46,87.68h409.36l-26.41,47.64h-332.5c-.31,1.8.87,3.3,2.53,4.6,12.44,9.72,80.97,39.54,94.75,39.54h210.71l-26.89,48.94H257.6l26.91-48.94h253.38l-37.11-44.13h-191.81l26.41-47.64h150.51Z"/>
  </g>
  <line class="cls-2" x1="932" y1="649.86" x2="1132.03" y2="288.99"/>
  <line class="cls-2" x1="840.14" y1="647.42" x2="1040.17" y2="286.55"/>
  <line class="cls-2" x1="221.32" y1="636.15" x2="421.35" y2="275.28"/>
  <text class="cls-1" transform="translate(253.24 627.02)"><tspan x="0" y="0">Light</tspan></text>
  <text class="cls-1" transform="translate(966.02 644.22)"><tspan x="0" y="0">Medium</tspan></text>
  <text class="cls-1" transform="translate(1684.18 650.18)"><tspan x="0" y="0">Bold</tspan></text>
</svg>